<svg xmlns="http://www.w3.org/2000/svg" viewBox="0 0 737.33 292.84"><defs><style>.cls-1,.cls-3{fill:none;stroke-width:3px;}.cls-1{stroke:#146bb2;}.cls-1,.cls-3,.cls-8{stroke-miterlimit:10;}.cls-2{fill:#b2d7e7;}.cls-2,.cls-4{opacity:0.6;}.cls-3{stroke:#278050;}.cls-4{fill:#b2e0c6;}.cls-5{font-size:17px;font-family:TitilliumWeb-Bold, Titillium Web;font-weight:700;}.cls-6{letter-spacing:-0.01em;}.cls-7{fill:#a2a4a7;}.cls-8{fill:#e6b663;stroke:#000;stroke-width:0.5px;}</style></defs><g id="Livello_2" data-name="Livello 2"><polyline class="cls-1" points="386 95.55 413.77 95.55 413.77 60.19 467.65 60.19 467.65 95.55 521.28 95.55 521.28 60.19 575.87 60.19 575.87 95.55 629.04 95.55 629.04 60.19 682.91 60.19 682.91 95.55 736.79 95.55"/><rect class="cls-2" x="415.27" y="61.69" width="50.87" height="34.48"/><rect class="cls-2" x="522.79" y="61.69" width="51.58" height="34.48"/><rect class="cls-2" x="630.53" y="61.69" width="50.87" height="34.48"/><polyline class="cls-3" points="384.81 176.3 440.62 176.3 440.62 140.93 494.5 140.93 494.5 176.3 548.13 176.3 548.13 140.93 602.72 140.93 602.72 176.3 655.88 176.3 655.88 140.93 709.76 140.93 709.76 176.3 737.33 176.3"/><rect class="cls-4" x="442.12" y="142.43" width="50.87" height="34.48"/><rect class="cls-4" x="549.63" y="142.43" width="51.58" height="34.48"/><rect class="cls-4" x="657.38" y="142.43" width="50.87" height="34.48"/><text class="cls-5" transform="translate(88.75 287.55)"><tspan class="cls-6">C</tspan><tspan x="9.1" y="0">ommon Pin C</tspan></text><text class="cls-5" transform="translate(313.24 117.05)">Output A</text><text class="cls-5" transform="translate(313.24 163.03)">Output B</text><path class="cls-7" d="M186.13,121.45A134.92,134.92,0,1,0,321.05,256.36,134.92,134.92,0,0,0,186.13,121.45Zm0,186.54a50.82,50.82,0,1,1,50.82-50.82A50.82,50.82,0,0,1,186.1,308Z" transform="translate(-51.21 -121.45)"/><path class="cls-8" d="M129.45,200a71.17,71.17,0,0,0-20.9,35.69l-34-9.06a86.47,86.47,0,0,1,3.69-13.31,92.86,92.86,0,0,1,26.08-37.54Z" transform="translate(-51.21 -121.45)"/><path class="cls-8" d="M243.52,200a72.1,72.1,0,0,1,16.28,22.38,70.53,70.53,0,0,1,4.62,13.31l34-9.06a87.72,87.72,0,0,0-3.7-13.31,92.86,92.86,0,0,0-26.08-37.54Z" transform="translate(-51.21 -121.45)"/><path class="cls-8" d="M206.89,179.94a72.28,72.28,0,0,0-27.48-3.15,70.91,70.91,0,0,0-13.87,2.54l-8.87-34.08a87.85,87.85,0,0,1,13.41-3.34,92.84,92.84,0,0,1,45.51,4.21Z" transform="translate(-51.21 -121.45)"/><path class="cls-8" d="M206.89,333.78a72.31,72.31,0,0,1-27.48,3.14,71,71,0,0,1-13.87-2.53l-8.87,34.07a85.57,85.57,0,0,0,13.41,3.34,92.84,92.84,0,0,0,45.51-4.21Z" transform="translate(-51.21 -121.45)"/><path class="cls-8" d="M129.22,313.41a72.2,72.2,0,0,1-15.89-22.65,71.14,71.14,0,0,1-4.4-13.39l-34.17,8.48a86.76,86.76,0,0,0,3.47,13.37,92.76,92.76,0,0,0,25.43,38Z" transform="translate(-51.21 -121.45)"/><path class="cls-8" d="M243.76,314.11a72.08,72.08,0,0,0,15.88-22.65,70.68,70.68,0,0,0,4.4-13.39l34.18,8.48a86.67,86.67,0,0,1-3.48,13.38,92.83,92.83,0,0,1-25.43,38Z" transform="translate(-51.21 -121.45)"/><line class="cls-1" x1="307.65" y1="112.97" x2="238.32" y2="121.89"/><line class="cls-3" x1="307.76" y1="158.59" x2="238.31" y2="149.08"/><circle class="cls-8" cx="231.26" cy="147.91" r="7.19"/><circle class="cls-8" cx="231.26" cy="122.87" r="7.19"/></g></svg>