<svg xmlns="http://www.w3.org/2000/svg" viewBox="0 0 743.63 251.02"><defs><style>.cls-1,.cls-10,.cls-2,.cls-3,.cls-4,.cls-6{fill:none;}.cls-1,.cls-2{stroke:#bab5b6;}.cls-1,.cls-10,.cls-2,.cls-3,.cls-6{stroke-miterlimit:10;}.cls-2{stroke-dasharray:8.07 2.02;}.cls-3{stroke:#146bb2;}.cls-10,.cls-3,.cls-4,.cls-6{stroke-width:3px;}.cls-10,.cls-4{stroke:#000;}.cls-5{fill:#b2d7e7;}.cls-5,.cls-7{opacity:0.6;}.cls-6{stroke:#278050;}.cls-7{fill:#b2e0c6;}.cls-8{font-size:26px;fill:#ef293d;}.cls-8,.cls-9{font-family:TitilliumWeb-Bold, Titillium Web;font-weight:700;}.cls-9{font-size:17px;}.cls-11{letter-spacing:0em;}</style></defs><g id="Livello_2" data-name="Livello 2"><line class="cls-1" x1="41.74" y1="21.74" x2="41.74" y2="25.74"/><line class="cls-2" x1="41.74" y1="27.75" x2="41.74" y2="218.45"/><line class="cls-1" x1="41.74" y1="219.46" x2="41.74" y2="223.46"/><line class="cls-1" x1="69.56" y1="21.74" x2="69.56" y2="25.74"/><line class="cls-2" x1="69.56" y1="27.75" x2="69.56" y2="218.45"/><line class="cls-1" x1="69.56" y1="219.46" x2="69.56" y2="223.46"/><line class="cls-1" x1="96.41" y1="21.74" x2="96.41" y2="25.74"/><line class="cls-2" x1="96.41" y1="27.75" x2="96.41" y2="218.45"/><line class="cls-1" x1="96.41" y1="219.46" x2="96.41" y2="223.46"/><line class="cls-1" x1="124.24" y1="21.74" x2="124.24" y2="25.74"/><line class="cls-2" x1="124.24" y1="27.75" x2="124.24" y2="218.45"/><line class="cls-1" x1="124.24" y1="219.46" x2="124.24" y2="223.46"/><line class="cls-1" x1="150.56" y1="21.74" x2="150.56" y2="25.74"/><line class="cls-2" x1="150.56" y1="27.75" x2="150.56" y2="218.45"/><line class="cls-1" x1="150.56" y1="219.46" x2="150.56" y2="223.46"/><line class="cls-1" x1="177.43" y1="21.74" x2="177.43" y2="25.74"/><line class="cls-2" x1="177.43" y1="27.75" x2="177.43" y2="218.45"/><line class="cls-1" x1="177.43" y1="219.46" x2="177.43" y2="223.46"/><line class="cls-1" x1="205.24" y1="21.74" x2="205.24" y2="25.74"/><line class="cls-2" x1="205.24" y1="27.75" x2="205.24" y2="218.45"/><line class="cls-1" x1="205.24" y1="219.46" x2="205.24" y2="223.46"/><line class="cls-1" x1="233.06" y1="21.74" x2="233.06" y2="25.74"/><line class="cls-2" x1="233.06" y1="27.75" x2="233.06" y2="218.45"/><line class="cls-1" x1="233.06" y1="219.46" x2="233.06" y2="223.46"/><line class="cls-1" x1="256.96" y1="21.74" x2="256.96" y2="25.74"/><line class="cls-2" x1="256.96" y1="27.75" x2="256.96" y2="218.45"/><line class="cls-1" x1="256.96" y1="219.46" x2="256.96" y2="223.46"/><line class="cls-1" x1="284.79" y1="21.74" x2="284.79" y2="25.74"/><line class="cls-2" x1="284.79" y1="27.75" x2="284.79" y2="218.45"/><line class="cls-1" x1="284.79" y1="219.46" x2="284.79" y2="223.46"/><line class="cls-1" x1="311.64" y1="21.74" x2="311.64" y2="25.74"/><line class="cls-2" x1="311.64" y1="27.75" x2="311.64" y2="218.45"/><line class="cls-1" x1="311.64" y1="219.46" x2="311.64" y2="223.46"/><line class="cls-1" x1="339.46" y1="21.74" x2="339.46" y2="25.74"/><line class="cls-2" x1="339.46" y1="27.75" x2="339.46" y2="218.45"/><line class="cls-1" x1="339.46" y1="219.46" x2="339.46" y2="223.46"/><line class="cls-1" x1="419.13" y1="21.74" x2="419.13" y2="25.74"/><line class="cls-2" x1="419.13" y1="27.75" x2="419.13" y2="218.45"/><line class="cls-1" x1="419.13" y1="219.46" x2="419.13" y2="223.46"/><line class="cls-1" x1="446.37" y1="21.74" x2="446.37" y2="25.74"/><line class="cls-2" x1="446.37" y1="27.75" x2="446.37" y2="218.45"/><line class="cls-1" x1="446.37" y1="219.46" x2="446.37" y2="223.46"/><line class="cls-1" x1="473.81" y1="21.74" x2="473.81" y2="25.74"/><line class="cls-2" x1="473.81" y1="27.75" x2="473.81" y2="218.45"/><line class="cls-1" x1="473.81" y1="219.46" x2="473.81" y2="223.46"/><line class="cls-1" x1="501.63" y1="21.74" x2="501.63" y2="25.74"/><line class="cls-2" x1="501.63" y1="27.75" x2="501.63" y2="218.45"/><line class="cls-1" x1="501.63" y1="219.46" x2="501.63" y2="223.46"/><line class="cls-1" x1="527.96" y1="21.74" x2="527.96" y2="25.74"/><line class="cls-2" x1="527.96" y1="27.75" x2="527.96" y2="218.45"/><line class="cls-1" x1="527.96" y1="219.46" x2="527.96" y2="223.46"/><line class="cls-1" x1="555.78" y1="21.74" x2="555.78" y2="25.74"/><line class="cls-2" x1="555.78" y1="27.75" x2="555.78" y2="218.45"/><line class="cls-1" x1="555.78" y1="219.46" x2="555.78" y2="223.46"/><line class="cls-1" x1="582.63" y1="21.74" x2="582.63" y2="25.74"/><line class="cls-2" x1="582.63" y1="27.75" x2="582.63" y2="218.45"/><line class="cls-1" x1="582.63" y1="219.46" x2="582.63" y2="223.46"/><line class="cls-1" x1="608.76" y1="21.74" x2="608.76" y2="25.74"/><line class="cls-2" x1="608.76" y1="27.75" x2="608.76" y2="218.45"/><line class="cls-1" x1="608.76" y1="219.46" x2="608.76" y2="223.46"/><line class="cls-1" x1="634.36" y1="21.74" x2="634.36" y2="25.74"/><line class="cls-2" x1="634.36" y1="27.75" x2="634.36" y2="218.45"/><line class="cls-1" x1="634.36" y1="219.46" x2="634.36" y2="223.46"/><line class="cls-1" x1="662.18" y1="21.74" x2="662.18" y2="25.74"/><line class="cls-2" x1="662.18" y1="27.75" x2="662.18" y2="218.45"/><line class="cls-1" x1="662.18" y1="219.46" x2="662.18" y2="223.46"/><line class="cls-1" x1="689.03" y1="21.74" x2="689.03" y2="25.74"/><line class="cls-2" x1="689.03" y1="27.75" x2="689.03" y2="218.45"/><line class="cls-1" x1="689.03" y1="219.46" x2="689.03" y2="223.46"/><line class="cls-1" x1="716.86" y1="21.74" x2="716.86" y2="25.74"/><line class="cls-2" x1="716.86" y1="27.75" x2="716.86" y2="218.45"/><line class="cls-1" x1="716.86" y1="219.46" x2="716.86" y2="223.46"/><polyline class="cls-3" points="14.86 93.36 42.63 93.36 42.63 57.99 96.5 57.99 96.5 93.36 150.14 93.36 150.14 57.99 204.72 57.99 204.72 93.36 257.89 93.36 257.89 57.99 311.76 57.99 311.76 93.36 365.64 93.36"/><path class="cls-4" d="M441.12,289.35" transform="translate(-50.16 -115.22)"/><polyline class="cls-3" points="391.17 57.15 419.98 57.15 419.98 92.5 473.28 92.5 473.28 57.15 527.56 57.15 527.56 92.5 581.28 92.5 581.28 57.15 634.45 57.15 634.45 92.5 687.89 92.5 687.89 57.15 743.57 57.15"/><rect class="cls-5" x="44.13" y="59.49" width="50.87" height="34.48"/><rect class="cls-5" x="151.64" y="59.49" width="51.58" height="34.48"/><rect class="cls-5" x="259.39" y="59.49" width="50.87" height="34.48"/><polyline class="cls-6" points="13.66 174.1 69.47 174.1 69.47 138.74 123.35 138.74 123.35 174.1 176.99 174.1 176.99 138.74 231.57 138.74 231.57 174.1 284.74 174.1 284.74 138.74 338.61 138.74 338.61 174.1 366.19 174.1"/><rect class="cls-7" x="70.97" y="140.24" width="50.87" height="34.48"/><rect class="cls-7" x="178.49" y="140.24" width="51.58" height="34.48"/><rect class="cls-7" x="286.23" y="140.24" width="50.87" height="34.48"/><rect class="cls-5" x="474.78" y="58.65" width="51.25" height="34.48"/><rect class="cls-5" x="582.79" y="58.65" width="50.14" height="34.48"/><rect class="cls-5" x="689.4" y="58.65" width="53.47" height="34.48"/><rect class="cls-5" x="391.74" y="58.65" width="26.74" height="34.48"/><polyline class="cls-6" points="391.1 173.79 446.92 173.79 446.92 138.43 500.79 138.43 500.79 173.79 554.43 173.79 554.43 138.43 609.02 138.43 609.02 173.79 662.18 173.79 662.18 138.43 716.06 138.43 716.06 173.79 743.63 173.79"/><rect class="cls-7" x="448.42" y="139.93" width="50.87" height="34.48"/><rect class="cls-7" x="555.93" y="139.92" width="51.58" height="34.48"/><rect class="cls-7" x="663.68" y="139.93" width="50.87" height="34.48"/><text class="cls-8" transform="translate(103.22 88.82)">0</text><text class="cls-8" transform="translate(210.14 88.82)">0</text><text class="cls-8" transform="translate(155.91 170.03)">0</text><text class="cls-8" transform="translate(264.08 170.03)">0</text><text class="cls-8" transform="translate(532.68 87.45)">0</text><text class="cls-8" transform="translate(425.35 87.45)">0</text><text class="cls-8" transform="translate(532.68 170.03)">0</text><text class="cls-8" transform="translate(425.35 170.03)">0</text><text class="cls-9" transform="translate(130.08 14.28)">clockwise</text><line class="cls-10" x1="207.93" y1="9.67" x2="269.15" y2="9.67"/><polygon points="266.24 13.94 282.18 9.67 266.24 5.4 266.24 13.94"/><line class="cls-10" x1="528.93" y1="8.91" x2="467.71" y2="8.91"/><polygon points="470.63 4.64 454.69 8.91 470.63 13.18 470.63 4.64"/><text class="cls-9" transform="translate(535.59 14.28)"><tspan class="cls-11">c</tspan><tspan x="7.51" y="0">ounter clockwise</tspan></text><line class="cls-10" y1="209.92" x2="28.71" y2="209.92"/><polygon points="25.8 214.19 41.73 209.92 25.8 205.65 25.8 214.19"/><line class="cls-10" x1="112.01" y1="209.92" x2="83.29" y2="209.92"/><polygon points="86.21 205.65 70.27 209.92 86.21 214.19 86.21 205.65"/><path class="cls-10" d="M139.11,156.14a18.72,18.72,0,0,1,9.35.86,19.31,19.31,0,0,1,10.37,9.35c.17.35.33.69.47,1" transform="translate(-50.16 -115.22)"/><polygon points="105.62 50.8 110.69 61.07 111.44 49.65 105.62 50.8"/><path class="cls-10" d="M188.9,177.86a23.07,23.07,0,0,1,2.47-10.13,20.56,20.56,0,0,1,11-9.91c.38-.14.75-.26,1.12-.37" transform="translate(-50.16 -115.22)"/><polygon points="151.53 45.56 162.39 41.93 151.18 39.64 151.53 45.56"/><path class="cls-10" d="M245.5,156.54a18.79,18.79,0,0,1,9.36.87,19.28,19.28,0,0,1,10.36,9.35c.17.35.33.69.47,1" transform="translate(-50.16 -115.22)"/><polygon points="212.01 51.21 217.08 61.48 217.83 50.05 212.01 51.21"/><path class="cls-10" d="M295.3,178.26a22.88,22.88,0,0,1,2.46-10.12,20.56,20.56,0,0,1,11-9.91c.38-.14.76-.27,1.13-.38" transform="translate(-50.16 -115.22)"/><polygon points="257.93 45.97 268.78 42.34 257.57 40.05 257.93 45.97"/><path class="cls-10" d="M460.65,155.59a18.73,18.73,0,0,1,9.35.86,19.31,19.31,0,0,1,10.37,9.35c.17.35.33.69.47,1" transform="translate(-50.16 -115.22)"/><polygon points="427.16 50.25 432.22 60.52 432.98 49.1 427.16 50.25"/><path class="cls-10" d="M510.44,177.31a23.07,23.07,0,0,1,2.47-10.13,20.53,20.53,0,0,1,11-9.91c.38-.14.75-.26,1.12-.37" transform="translate(-50.16 -115.22)"/><polygon points="473.07 45.01 483.93 41.38 472.71 39.09 473.07 45.01"/><path class="cls-10" d="M567,156a18.75,18.75,0,0,1,9.35.87,19.27,19.27,0,0,1,10.37,9.35c.17.35.33.69.47,1" transform="translate(-50.16 -115.22)"/><polygon points="533.55 50.66 538.62 60.93 539.37 49.5 533.55 50.66"/><path class="cls-10" d="M616.84,177.71a22.88,22.88,0,0,1,2.46-10.12,20.56,20.56,0,0,1,11-9.91c.38-.14.76-.27,1.12-.38" transform="translate(-50.16 -115.22)"/><polygon points="579.46 45.42 590.32 41.79 579.11 39.5 579.46 45.42"/><text class="cls-9" transform="translate(3.78 245.74)">90°out of phase</text><text class="cls-8" transform="translate(153.08 88.82)">1</text><text class="cls-8" transform="translate(261.3 88.82)">1</text><text class="cls-8" transform="translate(101.94 170.03)">1</text><text class="cls-8" transform="translate(209.04 170.03)">1</text><text class="cls-8" transform="translate(476.5 88.82)">1</text><text class="cls-8" transform="translate(584.53 88.82)">1</text><text class="cls-8" transform="translate(476.5 170.03)">1</text><text class="cls-8" transform="translate(585.59 170.03)">1</text></g></svg>